<svg xmlns="http://www.w3.org/2000/svg" version="1.1" xmlns:xlink="http://www.w3.org/1999/xlink" xmlns:svgjs="http://svgjs.com/svgjs" width="1255" height="423"><svg xmlns="http://www.w3.org/2000/svg" width="1255" height="423" viewBox="0 0 1255 423" version="1.1">
	<path fill-opacity="1.000" d="M 209.982 2.381 C 208.067 3.691, 204.925 6.505, 203 8.635 C 201.075 10.765, 197.533 14.049, 195.129 15.934 C 188.878 20.833, 179.360 33.236, 175.025 42.131 C 172.979 46.328, 170.360 51.090, 169.204 52.714 C 166.006 57.205, 160.650 69.496, 157.525 79.516 C 155.984 84.457, 153.461 92.325, 151.919 97 C 147.020 111.848, 143.277 126.796, 138.020 152.500 C 136.333 160.750, 134.085 170.875, 133.024 175 C 127.027 198.318, 116.318 267.924, 109.666 326.820 L 108.500 337.140 100.100 322.320 C 95.480 314.169, 90.645 305.826, 89.355 303.779 C 88.066 301.733, 86.407 298.309, 85.671 296.170 C 84.934 294.032, 82.413 288.956, 80.070 284.891 C 77.726 280.826, 72.736 271.781, 68.981 264.790 C 65.226 257.800, 61.651 251.500, 61.036 250.790 C 57.863 247.131, 47.956 232.753, 44.988 227.500 C 43.123 224.200, 41.029 220.921, 40.334 220.214 C 39.639 219.506, 38.282 217.594, 37.319 215.964 C 36.357 214.334, 35.252 213, 34.864 213 C 34.476 213, 33.869 211.680, 33.515 210.067 C 33.160 208.454, 30.463 204.629, 27.522 201.567 L 22.173 196 15.663 196 C 10.187 196, 8.684 196.395, 6.196 198.488 C 4.570 199.857, 2.455 202.629, 1.496 204.649 C -0.941 209.785, 0.109 220.155, 4.118 230.540 C 5.809 234.918, 7.563 240.586, 8.018 243.137 C 8.472 245.687, 9.711 249.512, 10.771 251.637 C 11.831 253.761, 13.549 257.975, 14.590 261 C 15.630 264.025, 18.320 269.425, 20.566 273 C 22.813 276.575, 25.258 281.075, 25.999 283 C 28.340 289.082, 39.198 310.485, 40.118 310.833 C 40.603 311.017, 41 311.815, 41 312.608 C 41 314.243, 47.847 328.234, 49.022 329 C 49.444 329.275, 51.356 332.650, 53.271 336.500 C 56.550 343.092, 60.359 350.057, 69.676 366.500 C 73.209 372.735, 80.508 383.954, 87.566 394 C 91.312 399.331, 101.126 409.019, 104.498 410.714 C 106.149 411.545, 108.850 413.450, 110.500 414.948 C 116.913 420.770, 120.859 422.270, 130 422.358 C 139.448 422.449, 143.153 421.097, 148.525 415.597 C 155.644 408.308, 156.894 404.151, 158.022 384 C 159.218 362.636, 160.807 346.658, 162.444 339.520 C 163.203 336.209, 164.114 330.800, 164.469 327.500 C 165.263 320.125, 165.823 315.913, 171.521 274.500 C 176.825 235.948, 179.295 220.006, 182.521 203.500 C 183.811 196.900, 185.388 187.900, 186.025 183.500 C 189.162 161.829, 194.169 139.762, 203.496 106.500 C 205.501 99.350, 207.740 91.250, 208.471 88.500 C 209.203 85.750, 210.488 81.250, 211.327 78.500 C 214.107 69.389, 221.282 43.434, 224.458 31 C 225.372 27.425, 226.762 22.250, 227.548 19.500 C 230.045 10.758, 229.191 4.433, 225.087 1.282 C 222.262 -0.887, 213.868 -0.276, 209.982 2.381 M 367.121 243.879 C 364.222 246.778, 362.736 249.496, 361.245 254.629 C 359.032 262.245, 357 274.159, 357 279.519 C 357 281.819, 356.530 283, 355.614 283 C 354.852 283, 352.940 283.672, 351.364 284.494 C 349.789 285.315, 347.739 285.990, 346.809 285.994 C 345.879 285.997, 344.880 286.386, 344.588 286.857 C 344.297 287.329, 341.386 288.281, 338.120 288.975 C 329.353 290.835, 322.080 294.822, 319.859 298.984 C 317.301 303.778, 317.462 309.905, 320.253 314.048 C 324.279 320.021, 326.828 320.813, 343.194 321.175 L 357.889 321.500 358.444 328 C 361.219 360.476, 363.574 371.911, 369.165 380.066 C 374.550 387.920, 376.416 389.884, 380.050 391.523 C 385.587 394.019, 390.514 392.837, 395.230 387.879 C 403.865 378.801, 407.321 364.247, 407.427 336.500 L 407.500 317.500 414.500 316.901 C 418.350 316.571, 428.475 315.777, 437 315.136 C 445.525 314.495, 453.354 313.777, 454.397 313.540 C 456.192 313.133, 456.260 313.632, 455.652 322.805 C 455.299 328.137, 455.008 336.438, 455.005 341.250 C 455.001 348.359, 454.719 350, 453.500 350 C 451.414 350, 451.628 352.258, 454 355.273 C 455.100 356.671, 456 359.190, 456 360.870 C 456 370.300, 466.499 385.121, 474.172 386.523 C 482.185 387.986, 488.171 384.048, 491.280 375.269 C 494.623 365.829, 495.763 343.802, 494.150 319.859 L 493.500 310.217 498.500 309.597 C 501.250 309.256, 509.350 308.303, 516.500 307.479 C 528.639 306.081, 543.257 303.998, 566 300.428 C 587.382 297.071, 606.761 291.787, 616.500 286.659 C 619.800 284.922, 622.650 283.163, 622.833 282.750 C 623.017 282.337, 623.611 282, 624.153 282 C 626.243 282, 633.853 275.912, 635.673 272.784 C 641.671 262.474, 642.227 254.675, 637.212 251.206 C 630.616 246.643, 624.676 244.686, 614.616 243.763 C 605.194 242.897, 587.115 243.238, 575.500 244.499 C 565.673 245.566, 546.300 248.175, 534.500 250.020 C 527.900 251.052, 517.775 252.384, 512 252.980 C 506.225 253.576, 498.125 254.711, 494 255.501 C 489.875 256.291, 478.400 257.858, 468.500 258.982 C 458.600 260.106, 449.150 261.466, 447.500 262.005 C 445.850 262.543, 439.325 263.641, 433 264.444 C 426.675 265.246, 417.450 266.845, 412.500 267.995 C 396.509 271.711, 398.309 271.969, 397.563 265.853 C 396.311 255.592, 393.094 247.317, 388.873 243.504 C 385.218 240.202, 384.591 240, 377.997 240 C 371.203 240, 370.887 240.113, 367.121 243.879 M 1006 263.737 C 1001.242 267.428, 1000.372 268.642, 997.959 274.954 C 996.163 279.656, 995.752 283.870, 994.981 305.493 C 994.190 327.702, 994.300 332.068, 995.940 343.580 C 998.356 360.531, 1002.436 369.634, 1009.603 374.064 C 1014.023 376.795, 1023.819 376.759, 1027 374 C 1028.268 372.900, 1029.613 372, 1029.988 372 C 1030.364 372, 1032.958 367.545, 1035.753 362.100 C 1039.660 354.490, 1041.106 350.384, 1042.004 344.350 C 1042.646 340.032, 1043.653 334.818, 1044.242 332.762 C 1045.512 328.326, 1044.611 290.475, 1043.192 288.669 C 1042.687 288.026, 1041.974 285.544, 1041.609 283.153 C 1040.514 275.982, 1035.792 268.134, 1029.906 263.705 C 1026.659 261.262, 1025.498 261.001, 1017.906 261.011 C 1010.297 261.021, 1009.168 261.280, 1006 263.737 M 862.500 262.930 C 852.948 264.472, 835.634 270.033, 829.585 273.503 C 817.648 280.350, 812.838 286.876, 811.589 297.920 C 810.979 303.305, 811.212 304.756, 813.446 309.477 C 815.159 313.098, 816 316.578, 816 320.044 C 816 322.886, 816.649 327.751, 817.442 330.856 C 818.235 333.960, 819.597 342.350, 820.469 349.500 C 821.945 361.608, 823.717 371.319, 826.066 380.187 C 827.423 385.311, 834.299 393.680, 838.641 395.494 C 848.362 399.556, 859.302 394.902, 863.311 385 C 864.090 383.075, 865.332 376.602, 866.071 370.615 L 867.415 359.731 879.859 360.422 C 894.808 361.253, 899.772 363.361, 910.649 373.497 C 911.831 374.599, 914.279 376.625, 916.088 378 C 917.898 379.375, 921.032 381.850, 923.054 383.500 C 931.338 390.259, 942.234 398.524, 943.330 398.878 C 943.974 399.085, 946.975 400.375, 950 401.744 C 956.196 404.547, 961.649 405.556, 965.448 404.602 C 967.837 404.003, 967.973 403.662, 967.390 399.729 C 967.046 397.403, 966.142 394.503, 965.382 393.285 C 964.622 392.067, 964 390.436, 964 389.660 C 964 388.884, 962.945 385.830, 961.656 382.874 C 960.366 379.918, 958.544 374.350, 957.607 370.500 C 953.271 352.693, 946.117 338.436, 936.155 327.750 C 933.719 325.137, 932.165 323, 932.701 323 C 933.237 323, 934.873 320.553, 936.338 317.563 C 938.728 312.682, 939 311.006, 939 301.175 C 939 290.239, 938.995 290.217, 935.373 284.862 C 930.210 277.230, 926.316 273.357, 919.830 269.406 C 910.407 263.667, 906.521 262.870, 886 262.478 C 875.825 262.283, 865.250 262.487, 862.500 262.930 M 1193.500 263.031 C 1180.634 265.041, 1170.775 268.507, 1168.700 271.750 C 1168.260 272.438, 1167.448 273, 1166.894 273 C 1166.340 273, 1164.529 274.462, 1162.868 276.250 C 1160.185 279.138, 1159.898 280.037, 1160.285 284.325 C 1160.930 291.468, 1162.063 292.135, 1174.997 293 C 1185.167 293.680, 1186.831 294.082, 1193.538 297.486 L 1200.906 301.226 1199.047 306.118 C 1198.025 308.809, 1195.909 312.533, 1194.344 314.395 C 1191.057 318.307, 1177.258 325.513, 1169.636 327.298 C 1163.375 328.763, 1144.139 328.690, 1140.293 327.186 C 1138.757 326.585, 1135.700 325.618, 1133.500 325.037 C 1131.300 324.455, 1127.843 322.431, 1125.817 320.538 C 1122.422 317.365, 1122.208 316.839, 1123.071 313.798 C 1124.912 307.313, 1124.315 307.500, 1143.218 307.500 L 1160.500 307.500 1160.802 304.900 C 1161.042 302.830, 1159.821 301.065, 1154.802 296.230 C 1143.334 285.181, 1140.252 283.491, 1129.580 282.398 C 1122.528 281.675, 1118.080 282.549, 1110.178 286.210 C 1105.089 288.568, 1095.502 300.018, 1091.246 308.821 C 1088.813 313.852, 1088.500 315.640, 1088.500 324.500 C 1088.500 336.957, 1090.104 341.484, 1098.073 351.511 C 1102.859 357.533, 1114.069 367, 1116.415 367 C 1116.704 367, 1119.317 368.060, 1122.220 369.354 C 1135.342 375.206, 1139.982 376.059, 1162 376.665 C 1187.054 377.354, 1193.043 376.006, 1215.800 364.557 C 1231.715 356.549, 1238.455 349.992, 1245.518 335.648 C 1248.536 329.517, 1251.990 320.741, 1253.192 316.147 C 1255.173 308.575, 1255.269 307.051, 1254.217 299.835 C 1253.491 294.853, 1252.038 290.003, 1250.332 286.868 C 1247.368 281.423, 1237.185 271.321, 1232.455 269.133 C 1230.830 268.382, 1228.825 267.438, 1228 267.037 C 1227.175 266.636, 1223.350 265.736, 1219.500 265.038 C 1215.650 264.340, 1211.195 263.370, 1209.601 262.884 C 1206.256 261.864, 1200.639 261.915, 1193.500 263.031 M 696.825 269.570 C 688.945 271.182, 683.942 272.779, 681.435 274.480 C 679.155 276.027, 676.321 277, 674.096 277 C 670.169 277, 661.297 279.920, 657.332 282.518 C 655.974 283.408, 651.511 287.320, 647.414 291.212 C 638.631 299.555, 635.100 306.118, 631.325 321.123 C 628.989 330.405, 628.879 331.867, 629.808 341.315 C 631.293 356.413, 636.269 369.752, 642.655 375.752 C 648.635 381.371, 657.236 386.500, 664.661 388.876 C 674.176 391.920, 697.566 392.499, 703.060 389.827 C 704.952 388.907, 709.200 386.914, 712.500 385.400 C 719.634 382.126, 727.856 376.265, 731.137 372.115 C 732.437 370.471, 735.543 367.574, 738.040 365.677 C 740.537 363.781, 744.573 359.590, 747.009 356.364 C 749.444 353.139, 752.801 348.887, 754.469 346.915 C 758.253 342.440, 760.545 338.414, 764.383 329.500 C 767.243 322.858, 767.397 321.809, 767.389 309 C 767.378 292.526, 766.531 290.225, 757.037 280.900 C 749.643 273.637, 742.442 269.738, 733.299 268.048 C 724.083 266.344, 709.641 266.946, 696.825 269.570 M 245.208 287.711 C 241.645 288.394, 236.370 294.363, 234.632 299.680 C 233.765 302.331, 232.556 308.693, 231.946 313.819 C 230.463 326.266, 232.396 358.362, 235.028 365 C 238.504 373.768, 242.886 381.615, 246.716 385.930 C 250.260 389.924, 251.067 390.335, 256.048 390.681 C 259.524 390.923, 262.059 390.597, 263.042 389.780 C 265.608 387.649, 268.632 381.870, 270.858 374.841 C 273.776 365.629, 274.241 337.241, 271.714 322.500 C 270.772 317, 269.501 309.350, 268.891 305.500 C 268.280 301.650, 266.847 296.813, 265.706 294.750 C 262.315 288.620, 254.492 285.934, 245.208 287.711 M 863.769 301.228 C 858.278 303.082, 857.217 303.776, 858.004 305 C 858.535 305.825, 858.976 307.491, 858.985 308.703 C 858.999 310.730, 859.379 310.867, 863.750 310.426 C 866.362 310.162, 872.550 309.556, 877.500 309.080 C 884.642 308.393, 887.629 307.585, 891.969 305.166 L 897.438 302.117 894.570 301.027 C 892.992 300.427, 886.931 299.716, 881.101 299.446 C 871.900 299.021, 869.611 299.256, 863.769 301.228 M 694 308.500 C 692.075 309.241, 689.503 309.882, 688.284 309.924 C 687.065 309.966, 683.283 311.800, 679.879 314 C 673.221 318.303, 669.661 318.910, 665.056 316.529 L 662.211 315.058 660.528 320.206 C 658.590 326.128, 658.953 329.433, 662.606 339.162 C 665.838 347.770, 668.366 350.372, 675.595 352.533 C 682.978 354.740, 683.861 354.686, 690.276 351.639 C 695.026 349.384, 701.857 342.793, 709.488 333.104 C 713.542 327.956, 718.682 317.842, 719.615 313.173 C 720.116 310.671, 719.772 310.313, 715.330 308.721 C 709.608 306.670, 699.036 306.561, 694 308.500" stroke="none" fill="black" fill-rule="evenodd"></path>
</svg><style>@media (prefers-color-scheme: light) { :root { filter: contrast(1) brightness(0.7); } }
@media (prefers-color-scheme: dark) { :root { filter: invert(100%); } }
</style></svg>